<?xml version="1.0" encoding="utf-8"?>
<!-- Generator: Adobe Illustrator 26.0.2, SVG Export Plug-In . SVG Version: 6.00 Build 0)  -->
<svg version="1.1" id="Calque_1" xmlns="http://www.w3.org/2000/svg" xmlns:xlink="http://www.w3.org/1999/xlink" x="0px" y="0px"
	 viewBox="0 0 664 664" style="enable-background:new 0 0 664 664;" xml:space="preserve">
<style type="text/css">
	.st0{fill:url(#SVGID_1_);}
	.st1{fill:#FFFFFF;}
	.st2{fill:url(#SVGID_00000180357976909923451920000003719646126308957353_);}
	.st3{fill:url(#SVGID_00000176004060978113666940000003581072084912230546_);}
	.st4{fill:url(#SVGID_00000085963550999545286160000006575921824477244086_);}
	.st5{fill:url(#SVGID_00000165924194174047866090000011738988399350967955_);}
	.st6{fill:url(#SVGID_00000096755106098554130710000018185202737316394149_);}
	.st7{fill:url(#SVGID_00000083069503404645939140000003104746588018258860_);}
	.st8{fill:url(#SVGID_00000026133000824362926860000015566254532851597753_);}
	.st9{fill:url(#SVGID_00000075879555589019842150000004776177728844827065_);}
	.st10{fill:url(#SVGID_00000049218635322533711550000012644962885491991447_);}
	.st11{fill:url(#SVGID_00000181061558055201679780000018006495138267555001_);}
	.st12{fill:url(#SVGID_00000122712569830286309240000008736969562575399331_);}
	.st13{fill:url(#SVGID_00000183215700007720755770000011963082504769374364_);}
	.st14{fill:url(#SVGID_00000096031068087304242230000009082393951099591060_);}
</style>
<radialGradient id="SVGID_1_" cx="329.0357" cy="332" r="335.2542" gradientUnits="userSpaceOnUse">
	<stop  offset="0" style="stop-color:#32B7C5"/>
	<stop  offset="0.2147" style="stop-color:#2DAEBC"/>
	<stop  offset="0.5717" style="stop-color:#1F94A5"/>
	<stop  offset="0.9944" style="stop-color:#0B6E82"/>
</radialGradient>
<path class="st0" d="M332,664L332,664C148.6,664,0,515.4,0,332v0C0,148.6,148.6,0,332,0h0c183.4,0,332,148.6,332,332v0
	C664,515.4,515.4,664,332,664z"/>
<g>
	<g>
		<g>
			<path class="st1" d="M367.6,172.7C348,157.2,332.4,150,332.4,150s-62.1,28.6-94.9,95.9l94.9-59.8l94.8,59.8
				C410.9,212.2,387.2,188.3,367.6,172.7z M438.2,273.8l-37.1-23.4l-68.7-43.2l-68.7,43.2l-37.2,23.4c-5.4,17.7-8.7,37.4-8.7,59.4
				c0,25.6,1.2,44,18.6,44c13.5,0,33-9.4,56.6-9.4c23.6,0,39.3,11.9,39.3,11.9s15.7-11.9,39.3-11.9c23.6,0,43.1,9.4,56.6,9.4
				c17.4,0,18.6-18.5,18.6-44C446.9,311.2,443.6,291.5,438.2,273.8z M335.5,228.2h16v16h-16V228.2z M335.5,250.4h16v16h-16V250.4z
				 M313.3,228.2h16v16h-16V228.2z M313.3,250.4h16v16h-16V250.4z M279.9,338c-24.6-20.7-30.6-50.2-20.3-71.1c0,0,0.2,0.7,3.7,1.9
				c3.5,1.3,35.5,10.4,53.2,27c3.6,3.3,6.8,6.9,9.7,10.5c-4.2,9.4-5.8,19-6,27.2c-10.1-5.7-21.3-13.2-29.4-22.3
				c0.5,0.9,6.7,12.7,29.4,26.8c0,5.8,0.7,10.7,1.3,14.2C309.2,352.1,293.4,349.3,279.9,338z M408.1,278.1
				c-1.3,3.5-10.4,35.5-26.9,53.2c-16.5,17.7-37.9,26.7-49.2,28.3c0,0,12.9-35.4,33.9-54.1c-0.6,0.3-19.4,9.8-38.6,51.2
				c0,0-10.6-35.7,11.7-62c20.7-24.6,50.2-30.6,71.1-20.3C410.1,274.3,409.4,274.6,408.1,278.1z"/>
		</g>
	</g>
	<g>
		<path class="st1" d="M229.5,440.2c-2.4-4.3-7.2-6.9-11.9-6.9c-12.7,0-18,9.6-19.6,22.4c-1.2,10-0.1,16.3,4.8,20.7
			c-3,2.1-7.4,5.2-8,10c-0.4,3.8,1.2,6.5,3.6,8.4c-2.9,2.1-7.5,4.8-8,9.3c-0.8,6.7,5.3,10.8,17.4,10.8c13.1,0,22.4-4.8,23.7-15
			c2.6-21.6-27.2-10.1-26.3-17.5c0.2-1.4,1.7-2.4,2.4-3.5c1.7,0.7,3,0.8,4.6,0.8c11.2,0,17.4-8.5,19.2-23.4
			c0.5-3.6,0.1-6.6-0.1-10.5c1.6-0.5,2.8-1.3,4-1.3c0.9,0,2.6,0.7,3.4,0.9l1.5-12C236.1,433.4,233,435.9,229.5,440.2z M216.8,497.9
			c3.4,0.3,4,1.2,3.8,3.2c-0.4,3.1-3.8,4.7-9.2,4.7c-6.7,0-10.2-1.3-9.8-4.4c0.2-2.2,1.6-3.4,3-4.8L216.8,497.9z M220.7,456
			c-1.3,10.4-3.2,12.6-8.1,12.6c-3.4,0-4.9-3.7-4-11.2c1.2-9.3,3.2-12.9,7.5-12.9C220.2,444.5,221.6,448.3,220.7,456z"/>
		<path class="st1" d="M421.5,432.9c-3.3,0.4-7.2,2.7-10,5.1c-2.6-2.7-5.8-4-10.5-4c-9.3,0-17.4,8-18.8,20.2
			c-0.7,6.3,0.5,12,4.2,16.1c-3.7,2.8-6.5,4.9-7,9.9c-0.4,3.4,1.4,6.9,4.6,8.2c-5.1,3.2-8.1,6-8.8,11.8c-1.1,9.6,5,14,17.3,14
			c13.6,0,20.8-7.1,21.7-15.5c1.3-11.3-4.8-16.2-25.4-16.2c-2.2,0-3.5-1.6-3.2-4.2c0.3-2.5,1.6-4.4,4.1-5.3c2.2,0.9,4,1.6,7.6,1.6
			c8.8,0,16.9-8.8,18.2-20.2c0.6-5.3-0.6-9.8-1.7-11.8c1.6-1,4.4-1.6,6.9-1.6L421.5,432.9z M394.3,490.4c10.7,0,14.7,2.9,14.2,8.5
			c-0.7,5.7-6.9,8.3-14.2,8.3c-12.1,0-13.8-2.9-13.3-7.2C381.4,496,384.8,490.4,394.3,490.4z M409.6,454.6
			c-0.7,6.9-4.9,12.9-11.8,12.9c-6.7,0-10.7-5.7-9.8-13.3c0.9-7.5,5.2-13.3,12.1-13.3C407.5,440.9,410.6,446.2,409.6,454.6z"/>
		<g>
			<g>
				<path class="st1" d="M164.2,413.3h-19.9c-1.1,3.4-22.6,77.6-23.6,80.7h14l5.8-21.7h13.1l0.7,21.7h13.4L164.2,413.3z M143.6,461
					c3.1-12.5,7.1-29.3,8.4-36.5h0.5c0.1,8.9,0.6,24.1,0.8,36.5H143.6z"/>
				<path class="st1" d="M182.8,413.4l-9.4,80.7H185l9.4-80.7H182.8z"/>
				<path class="st1" d="M258.1,433.4c-13.8,0-16.2,10-17.2,19.3l-2.4,20.7c-1.2,10.1,0.3,21.6,15.5,21.6c13.7,0,15.9-8.7,16.9-17.6
					l0.1-1.2h-11.5l-0.2,1.7c-0.4,3.4-1,7.5-5.2,7.5c-4.3,0-4.9-4-4.3-8.7c0-0.4,1.1-9.1,1.1-9.4h21.4c0-0.4,1.5-13,1.6-13.3
					C275.1,443.5,272.9,433.4,258.1,433.4z M262.9,450c0,0.3-0.9,7.6-0.9,7.9h-10.2l1-8c0.5-4.5,1.8-7.5,5.6-7.5
					C262.6,442.5,263.3,446,262.9,450z"/>
				<path class="st1" d="M294.6,443c0.6-4.4,0.7-7.4,0.7-8.9h-11.1c-0.3,4.3-1.1,10.4-2.2,20.3l-4.6,39.6H289l3.6-32.1
					c1.4-11.7,5.6-14.9,13.5-14.9l1.8-13.8C302.4,433.3,297.1,435.6,294.6,443z"/>
				<path class="st1" d="M331.9,434.5c-4.7,0-8.3,2.3-10.3,6.4l3.2-27.5h-7.1l-9.4,80.7h7.1l4.6-39c1-8.5,3.3-14.4,9.3-14.4
					c5.6,0,6,4.6,5.3,10.3l-5,43.1h7.1l5.2-44.5C342.9,441,340.5,434.5,331.9,434.5z"/>
				<path class="st1" d="M374,435.4c-4.5,14.7-11.9,39.9-14.2,50h-0.1c0.1-6.3-1.7-31.3-3.2-50h-7.1l5.6,60.3
					c-3.2,10.1-4.9,12.2-9.1,12.2c-1.9,0-2.8-0.3-3.6-0.4l-0.9,6.5c1.2,0.3,3.2,0.6,4.9,0.6c6.3,0,10.2-0.8,15.4-17.3l19.5-62H374z"
					/>
				<path class="st1" d="M426.6,435.4l-6.9,58.7h7.1l6.9-58.7H426.6z M429.2,413.3l-1.4,11.8h7.1l1.4-11.8H429.2z"/>
				<path class="st1" d="M456.1,434.5c-11.5,0-13.7,9.5-14.7,18.6l-2.5,21.2c-1.2,10-0.1,20.7,12.8,20.7c11.6,0,13.2-8.6,14.3-16.2
					l0.2-1.6h-7l-0.2,1.6c-0.7,5.6-2,10.2-7.2,10.2c-6,0-6.8-5.7-6-13c0.3-2.1,0.9-8.4,1.2-10h20.7c0.3-1.9,1.3-10.7,1.5-12.4
					C470.2,444.8,468.9,434.5,456.1,434.5z M462.5,451.3c-0.2,1.4-0.9,7.1-1,8.6h-13.8l1-8.1c0.6-5.2,1.8-11.5,7.5-11.5
					C461.6,440.4,463.1,445.4,462.5,451.3z"/>
				<path class="st1" d="M497.6,434.5c-5.4,0-8.7,2.5-10.9,6.6c0.3-2.6,0.4-4.5,0.5-5.6h-6.9c-0.2,2.5-0.6,6.1-2,17.8l-4.7,40.9h7.1
					l4.5-38.6c1.2-10.7,4.6-14.8,9.5-14.8c4.9,0,6,3.4,5.3,9.2l-5.1,44.2h7.1l5.4-45.8C508.5,438.5,503.7,434.5,497.6,434.5z"/>
				<path class="st1" d="M530.8,434.5c-11.5,0-13.7,9.5-14.7,18.6l-2.5,21.2c-1.2,10-0.1,20.7,12.8,20.7c11.6,0,13.2-8.6,14.3-16.2
					l0.2-1.6h-7l-0.2,1.6c-0.7,5.6-2,10.2-7.2,10.2c-6,0-6.8-5.7-6-13c0.3-2.1,1-8.4,1.2-10h20.7c0.3-1.9,1.3-10.7,1.5-12.4
					C544.9,444.8,543.6,434.5,530.8,434.5z M537.2,451.3c-0.2,1.4-0.9,7.1-1,8.6h-13.8l1-8.1c0.6-5.2,1.8-11.5,7.5-11.5
					C536.3,440.4,537.9,445.4,537.2,451.3z"/>
			</g>
		</g>
	</g>
</g>
</svg>
