<?xml version="1.0" encoding="utf-8"?>
<!-- Generator: Adobe Illustrator 26.0.2, SVG Export Plug-In . SVG Version: 6.00 Build 0)  -->
<svg version="1.1" id="Calque_1" xmlns="http://www.w3.org/2000/svg" xmlns:xlink="http://www.w3.org/1999/xlink" x="0px" y="0px"
	 viewBox="0 0 500 500" style="enable-background:new 0 0 500 500;" xml:space="preserve">
<style type="text/css">
	.st0{fill:#FFFFFF;}
	.st1{fill:#FEFEFE;}
	.st2{fill:#FDFDFD;}
	.st3{fill:#FCFCFD;}
	.st4{fill:#FBFBFC;}
	.st5{fill:#FAFAFB;}
	.st6{fill:#F9F9FA;}
	.st7{fill:#F8F8F9;}
	.st8{fill:#F7F7F9;}
	.st9{fill:#F6F6F8;}
	.st10{fill:#F5F5F7;}
	.st11{fill:#F4F4F6;}
	.st12{fill:#F3F3F5;}
	.st13{fill:#F2F2F5;}
	.st14{fill:#F1F1F4;}
	.st15{fill:#F0F0F3;}
	.st16{fill:#EFEFF2;}
	.st17{fill:#EEEEF1;}
	.st18{fill:#EDEDF1;}
	.st19{fill:#ECECF0;}
	.st20{fill:#EBEBEF;}
	.st21{fill:#EAEAEE;}
	.st22{fill:#E9E9ED;}
	.st23{fill:#E8E8ED;}
	.st24{fill:#E7E7EC;}
	.st25{fill:#E6E6EB;}
	.st26{fill:#E5E5EA;}
	.st27{fill:#E4E4E9;}
	.st28{fill:#E3E3E9;}
	.st29{fill:#E2E2E8;}
	.st30{fill:#E1E1E7;}
	.st31{fill:#E0E0E6;}
	.st32{fill:#DFDFE5;}
	.st33{fill:#DEDEE5;}
	.st34{fill:#DDDDE4;}
	.st35{fill:#DCDCE3;}
	.st36{fill:#DBDBE2;}
	.st37{fill:#DADAE1;}
	.st38{fill:#006699;}
	.st39{fill:url(#SVGID_00000145023353147521421160000005473700146428538801_);}
	.st40{fill:url(#SVGID_00000147902064512518843790000015616074165305605512_);}
	.st41{fill:url(#SVGID_00000075132013371550766990000004831308352492840343_);}
	.st42{fill:#010000;}
	.st43{fill:url(#SVGID_00000160876733427098426240000011948734389603774351_);}
	.st44{fill:url(#SVGID_00000106119470020626920340000004416077109453079178_);}
	.st45{fill:url(#SVGID_00000170978416140623777230000017523686034473306795_);}
</style>
<g>
	<path class="st38" d="M295.49,220.03c-3.39,7.08-7.36,11.23-13.35,10.92c-3.17-0.17-11.6-3.01-17.36-18.26
		c-1.36-3.59-2.38-7.1-3.14-10.34c-1.63,11.23-4.62,21.94-8.93,32.02c10.67,25.61,26.16,29.94,32.37,29.94
		c12.75,0,21.68-9.29,29.7-24.77c0,0,18.22-8.2,22.96-20.78c4.74-12.56,1.09-25.14-16.58-35.34c-5.49-3.17-11.11-5.83-16.83-8.02
		c-12.68-4.87-25.8-7.44-38.74-8.2c-0.69-0.04-1.35-0.08-1.99-0.12c0.08,1.5,0.12,2.94,0.15,4.28c0,0.01,0,0.02-0.01,0.03
		c-0.06,2.64-0.21,6.54-0.5,12.17c-0.01,0.18-0.02,0.37-0.02,0.56c1.71,0.11,4.09,0.31,7.35,0.67c8.85,0.97,17.97,3.76,26.53,9
		c8.56,5.23,10.59,11.23,8.67,17.03C303.85,216.63,295.49,220.03,295.49,220.03z"/>
	<path class="st38" d="M213.29,189.14c3.63-1.37,7.14-2.39,10.41-3.16c-9.42-1.36-18.51-3.69-27.15-6.96l-1.54-0.59
		c-0.43-0.16-0.86-0.34-1.29-0.52l-0.2-0.09l-1.03-0.42l-0.05-0.02c-0.27-0.1-0.53-0.23-0.79-0.34c-0.01,0.01-0.01,0-0.02,0.01
		c-25.63,10.67-29.97,26.17-29.97,32.38c0.01,2,0.23,3.9,0.68,5.72c0.15,0.6,0.32,1.2,0.52,1.79c0.01,0.02,0.01,0.03,0.02,0.05
		c0.39,1.15,0.86,2.28,1.43,3.36c0.01,0.02,0.02,0.04,0.02,0.06c0.17,0.34,0.36,0.67,0.56,1.01c0.04,0.06,0.08,0.14,0.12,0.2
		c0.58,0.97,1.23,1.92,1.95,2.85c0.08,0.1,0.15,0.2,0.23,0.3c0.21,0.27,0.44,0.54,0.67,0.82c0.1,0.11,0.2,0.23,0.3,0.35
		c0.51,0.59,1.05,1.17,1.62,1.73c1.83,1.83,3.93,3.57,6.3,5.26c0.83,0.59,1.7,1.17,2.61,1.75c0.56,0.36,1.12,0.71,1.7,1.06
		c1.9,1.15,3.92,2.28,6.06,3.39c0,0,0.08,0.19,0.25,0.52l0.01,0.01c0.06,0.13,0.13,0.28,0.22,0.46c0.05,0.09,0.09,0.19,0.14,0.28
		c0.07,0.13,0.15,0.27,0.21,0.42c0.08,0.15,0.16,0.31,0.25,0.48l0.01,0.01c0.19,0.37,0.41,0.78,0.65,1.21
		c0.16,0.3,0.34,0.6,0.52,0.92c0,0.01,0,0.01,0.01,0.01c0.13,0.24,0.28,0.48,0.42,0.74c0.08,0.14,0.16,0.27,0.24,0.4
		c0.16,0.26,0.32,0.53,0.49,0.8c0.17,0.28,0.35,0.57,0.53,0.85c0.18,0.28,0.37,0.57,0.55,0.86c0.2,0.29,0.39,0.59,0.6,0.89
		c0.31,0.45,0.62,0.9,0.94,1.36c1.81,2.52,3.98,5.14,6.48,7.43c0.39,0.36,0.8,0.71,1.2,1.05c0.28,0.23,0.56,0.46,0.85,0.68
		l0.02,0.02c0.38,0.29,0.77,0.59,1.16,0.86c0.63,0.44,1.27,0.85,1.93,1.23c0.38,0.21,0.75,0.42,1.13,0.61
		c0.64,0.32,1.3,0.61,1.97,0.86c1.19,0.45,2.38,0.82,3.57,1.11c0.59,0.15,1.19,0.28,1.79,0.38c0.3,0.06,0.6,0.1,0.9,0.15
		c0.59,0.08,1.18,0.14,1.76,0.19c0.01-0.01,0.02-0.01,0.02,0.01c0.59,0.03,1.17,0.06,1.75,0.06c0.77-0.01,1.54-0.04,2.31-0.12
		c0.67-0.07,1.34-0.17,2.01-0.3c0.29-0.06,0.59-0.12,0.88-0.19c0.27-0.06,0.54-0.13,0.81-0.21c0.51-0.14,1.01-0.3,1.52-0.48
		c0.67-0.24,1.33-0.5,1.99-0.81c0.71-0.33,1.41-0.7,2.12-1.11c4.94-2.9,9.65-7.84,13.94-15.27c3.17-5.49,5.83-11.11,8.02-16.82
		c0,0.01,0,0.02,0.01,0.03c4.88-12.7,7.46-25.82,8.21-38.77c0.03-0.61,0.07-1.22,0.1-1.81c0.08-1.46,0.16-2.82,0.22-4.1
		c0-0.07,0.01-0.14,0.01-0.21c0.28-5.42,0.43-9.24,0.51-11.88v-0.12c0-0.02,0-0.05,0-0.07c-0.01-0.12-0.01-0.25-0.01-0.39v-0.12
		c-0.03-1.36-0.09-2.82-0.16-4.38c0-0.08-0.01-0.17-0.01-0.26v-0.01c-0.06-1.32-0.15-2.68-0.26-4.13c-0.17-2.39-0.41-4.92-0.72-7.58
		c-0.09-0.75-0.19-1.52-0.28-2.3c-0.23-1.76-0.49-3.58-0.8-5.43c-0.06-0.4-0.13-0.79-0.2-1.19c-0.08-0.46-0.16-0.91-0.24-1.36
		c-0.09-0.46-0.16-0.92-0.26-1.37c-0.28-1.51-0.59-3.04-0.93-4.58c-0.16-0.75-0.33-1.5-0.5-2.26c-0.13-0.54-0.26-1.09-0.39-1.64
		c-0.24-1.02-0.51-2.04-0.78-3.07c-0.11-0.43-0.23-0.86-0.35-1.3c-0.42-1.55-0.88-3.11-1.37-4.68c-0.28-0.9-0.57-1.81-0.87-2.72
		c-0.15-0.46-0.31-0.92-0.46-1.37c-10.61-30.67-27.87-35.62-34.52-35.62c-0.44,0-0.88,0.01-1.32,0.03
		c-0.65,0.03-1.29,0.09-1.92,0.17c-0.42,0.05-0.84,0.12-1.25,0.2c-1.86,0.35-3.63,0.92-5.33,1.69c-0.38,0.17-0.75,0.35-1.12,0.54
		c-1.09,0.57-2.15,1.22-3.19,1.96c-0.54,0.38-1.08,0.8-1.61,1.24c-0.51,0.42-1.02,0.86-1.52,1.32c-0.33,0.31-0.66,0.63-0.99,0.95
		c-2.86,2.86-5.52,6.42-8.05,10.59c-0.46,0.76-0.92,1.54-1.37,2.34c-0.68,1.2-1.35,2.44-2.02,3.72c0,0-0.74,0.34-1.97,0.97
		c-0.27,0.14-0.57,0.3-0.89,0.47c-0.35,0.19-0.74,0.4-1.13,0.63c-0.32,0.17-0.66,0.37-1,0.57c-0.39,0.23-0.79,0.47-1.22,0.73
		c-0.42,0.26-0.85,0.52-1.28,0.81c-0.44,0.29-0.89,0.58-1.34,0.89c-0.46,0.31-0.92,0.63-1.38,0.96c-2.09,1.5-4.27,3.27-6.25,5.25
		c-1.9,1.9-3.62,3.99-4.95,6.27c-0.24,0.41-0.47,0.83-0.68,1.26c-0.32,0.64-0.61,1.29-0.86,1.95c-4.74,12.57-1.1,25.14,16.57,35.34
		c1.1,0.64,2.22,1.26,3.33,1.85c0.46,0.25,0.93,0.5,1.39,0.74c1.22,0.63,2.46,1.24,3.69,1.83c0.56,0.27,1.11,0.52,1.67,0.78
		c0.39,0.18,0.78,0.35,1.18,0.53c0.46,0.21,0.93,0.41,1.39,0.6c0.31,0.13,0.61,0.27,0.92,0.39c0.41,0.17,0.82,0.34,1.23,0.5
		c0.67,0.28,1.35,0.54,2.03,0.8c0.01,0.01,0.01,0,0.02,0.01c12.68,4.87,25.79,7.44,38.72,8.19c0.72,0.04,1.41,0.08,2.1,0.12
		c0.17-2.78,0.25-5.57,0.25-8.38c0-2.71-0.08-5.41-0.23-8.09c-0.01-0.2-0.02-0.39-0.03-0.59c-1.69-0.11-3.98-0.31-7.05-0.64
		c-8.85-0.98-17.97-3.77-26.53-9c-8.55-5.23-10.59-11.23-8.67-17.03c1.92-5.79,10.28-9.2,10.28-9.2
		c3.38-7.08,7.35-11.22,13.34-10.91c1.89,0.1,5.65,1.15,9.59,5.2l0.01,0.01c2.67,2.75,5.43,6.88,7.76,13.05
		c1.26,3.33,2.23,6.59,2.97,9.62c0.01,0.05,0.02,0.1,0.03,0.16c2.63,10.77,2.43,18.87,2.43,18.87s-0.01,0.11-0.02,0.22
		c-0.01,0-0.02,0-0.02,0c0.01,0.08,0.01,0.14,0.01,0.22c0.32,5.57,0.31,11.15-0.02,16.72c-0.01,0.19-0.02,0.37-0.03,0.56
		c-0.07,1.18-0.16,2.35-0.27,3.53c-0.08,0.97-0.18,1.94-0.28,2.92c0,0.05-0.01,0.09-0.01,0.14c-0.1,1.23-0.25,2.66-0.43,4.32
		c-0.36,3.2-0.95,6.43-1.8,9.66c-1.51,5.71-3.85,11.4-7.19,16.86c-1.14,1.86-2.3,3.4-3.51,4.67c-4.32,4.59-8.99,5.51-13.52,4.01
		c-5.79-1.92-9.19-10.27-9.19-10.27c-7.08-3.39-11.23-7.36-10.92-13.35C195.21,203.34,198.04,194.9,213.29,189.14z"/>
	<path class="st38" d="M255.41,121.72c3.06,9.21,5.03,18.18,6.28,26.31c0.08-0.32,0.15-0.64,0.23-0.96
		c0.12-0.49,0.24-0.97,0.38-1.47c0.01-0.07,0.03-0.14,0.06-0.21c0.08-0.28,0.15-0.56,0.23-0.83c0.08-0.28,0.16-0.56,0.24-0.83
		c0.17-0.56,0.34-1.12,0.53-1.68c0.01-0.03,0.02-0.05,0.02-0.08c0.11-0.32,0.21-0.64,0.34-0.96c0.06-0.2,0.14-0.39,0.21-0.59
		c0.01-0.03,0.01-0.06,0.03-0.08c0.15-0.42,0.3-0.83,0.46-1.24c0.16-0.41,0.32-0.83,0.48-1.23c0.17-0.41,0.34-0.82,0.52-1.23
		c0.18-0.41,0.36-0.82,0.55-1.22c0.13-0.28,0.25-0.55,0.38-0.82c0.13-0.27,0.27-0.55,0.41-0.82c0.02-0.06,0.05-0.12,0.09-0.18
		c0.29-0.59,0.6-1.18,0.92-1.77c0.31-0.59,0.64-1.18,0.98-1.76l0.01-0.01c0.23-0.39,0.45-0.78,0.69-1.17
		c0.34-0.56,0.69-1.1,1.04-1.6c0.18-0.27,0.37-0.52,0.56-0.77c0.13-0.18,0.27-0.36,0.41-0.54c0.13-0.17,0.26-0.33,0.39-0.49
		c0.12-0.14,0.23-0.29,0.35-0.42c0.15-0.18,0.3-0.34,0.45-0.51c0.1-0.11,0.21-0.23,0.31-0.34c0.25-0.27,0.51-0.52,0.77-0.76
		c0.06-0.06,0.13-0.13,0.19-0.18c0.12-0.12,0.25-0.24,0.38-0.34c0.01-0.01,0.01-0.01,0.01-0.01c0.3-0.27,0.6-0.52,0.9-0.74
		c0.05-0.04,0.1-0.08,0.16-0.11c0.34-0.25,0.68-0.47,1.01-0.69c0.18-0.11,0.37-0.22,0.55-0.32c0.29-0.16,0.59-0.33,0.89-0.46
		c0.01-0.01,0.01-0.01,0.02-0.01c0.21-0.1,0.42-0.2,0.64-0.27c0.21-0.1,0.44-0.17,0.67-0.25c0.24-0.08,0.48-0.14,0.72-0.2
		c0.22-0.06,0.44-0.1,0.66-0.14c0.13-0.03,0.28-0.06,0.42-0.06c0.35-0.06,0.71-0.09,1.07-0.1c0.1-0.02,0.22-0.02,0.33-0.02
		c0.17,0,0.35,0,0.52,0.01c0.16,0,0.32,0.01,0.48,0.02c0.19,0.01,0.38,0.03,0.56,0.05c0.12,0.01,0.23,0.03,0.34,0.05
		c0.2,0.02,0.39,0.06,0.59,0.1c0.21,0.04,0.42,0.09,0.63,0.14c0.34,0.09,0.68,0.19,1.03,0.3c5.8,1.91,9.2,10.28,9.2,10.28
		c3.14,1.5,5.69,3.11,7.55,4.96c0.29,0.29,0.56,0.59,0.82,0.89c0.13,0.15,0.25,0.31,0.37,0.46c0.13,0.17,0.26,0.34,0.38,0.52
		c0.09,0.14,0.19,0.28,0.27,0.42c0.12,0.19,0.23,0.38,0.33,0.57c0.08,0.13,0.15,0.27,0.21,0.41c0.01,0.02,0.02,0.03,0.02,0.05
		c0.07,0.15,0.14,0.31,0.2,0.46c0.09,0.2,0.16,0.41,0.23,0.61c0.06,0.16,0.11,0.33,0.16,0.49c0.03,0.12,0.06,0.24,0.09,0.36
		c0.03,0.11,0.05,0.21,0.08,0.33c0.03,0.14,0.06,0.28,0.08,0.43c0.03,0.19,0.06,0.38,0.08,0.57c0.05,0.39,0.07,0.79,0.07,1.19
		c0,0.21-0.01,0.41-0.02,0.62c-0.01,0.11-0.02,0.24-0.03,0.37c-0.02,0.13-0.03,0.27-0.05,0.41c-0.01,0.05-0.02,0.1-0.03,0.16
		c-0.04,0.24-0.1,0.49-0.17,0.77c-0.13,0.5-0.3,1.04-0.54,1.63c-0.08,0.2-0.17,0.4-0.26,0.6c-0.09,0.21-0.19,0.41-0.3,0.63
		c-0.12,0.23-0.24,0.45-0.38,0.68c-0.1,0.19-0.21,0.38-0.34,0.57c-0.16,0.27-0.35,0.53-0.53,0.8c-0.13,0.18-0.26,0.37-0.41,0.54
		c-0.13,0.18-0.27,0.37-0.42,0.54c-0.1,0.12-0.2,0.25-0.31,0.37c-0.16,0.2-0.33,0.39-0.51,0.58c-0.21,0.24-0.43,0.47-0.67,0.71
		c-0.14,0.14-0.27,0.27-0.42,0.41c-0.09,0.09-0.19,0.18-0.28,0.27c-0.14,0.13-0.27,0.25-0.42,0.37c-0.2,0.17-0.39,0.35-0.6,0.52
		c-0.61,0.52-1.29,1.04-2.03,1.55c-0.25,0.17-0.5,0.34-0.76,0.52c-0.26,0.17-0.53,0.34-0.8,0.51c-0.27,0.17-0.56,0.34-0.84,0.5
		c-0.28,0.17-0.58,0.34-0.89,0.5c-0.3,0.16-0.61,0.33-0.93,0.5c-0.63,0.33-1.3,0.65-1.99,0.97c-0.35,0.16-0.71,0.31-1.07,0.47
		c-0.39,0.18-0.8,0.35-1.22,0.51c-0.35,0.14-0.7,0.28-1.06,0.41c-0.64,0.24-1.28,0.48-1.91,0.7c-0.54,0.2-1.09,0.38-1.63,0.56
		c-0.15,0.04-0.3,0.09-0.44,0.14c-0.39,0.13-0.79,0.24-1.18,0.37c-0.88,0.27-1.76,0.52-2.62,0.74c-0.42,0.12-0.86,0.23-1.28,0.34
		c-0.43,0.1-0.85,0.21-1.26,0.31c11.22,1.63,21.91,4.61,31.99,8.92c0.37-0.16,0.72-0.31,1.08-0.46c0.63-0.27,1.24-0.55,1.84-0.82
		c1.31-0.6,2.56-1.21,3.74-1.84c0.3-0.15,0.59-0.31,0.89-0.47c0.29-0.16,0.57-0.32,0.85-0.47c0.28-0.16,0.56-0.32,0.84-0.48
		c0.27-0.16,0.55-0.31,0.81-0.48c0.46-0.27,0.9-0.54,1.34-0.82c0.08-0.05,0.16-0.1,0.23-0.15c0.51-0.32,1-0.66,1.48-0.99
		c0.2-0.13,0.41-0.27,0.6-0.41c0.24-0.17,0.48-0.34,0.72-0.52c0.26-0.19,0.51-0.37,0.75-0.56c0.66-0.5,1.3-1,1.91-1.5
		c0.41-0.34,0.79-0.67,1.18-1c0.19-0.17,0.38-0.34,0.56-0.5c0.56-0.5,1.08-1,1.59-1.51c0.32-0.32,0.64-0.66,0.94-0.98
		c0.23-0.24,0.45-0.49,0.67-0.72c0.16-0.18,0.31-0.35,0.46-0.53c0.2-0.22,0.39-0.45,0.58-0.68c0.2-0.24,0.39-0.48,0.58-0.72
		c0.15-0.2,0.31-0.39,0.45-0.59c0.7-0.92,1.31-1.83,1.85-2.72c0.15-0.24,0.3-0.48,0.43-0.72c0.08-0.12,0.14-0.25,0.21-0.38
		c0.02-0.05,0.05-0.09,0.08-0.13c0.16-0.27,0.3-0.54,0.43-0.81c0.87-1.69,1.5-3.3,1.94-4.77c0.06-0.21,0.13-0.42,0.18-0.62
		c0.09-0.31,0.16-0.61,0.23-0.9c0.17-0.72,0.28-1.4,0.37-2.03c0.03-0.24,0.06-0.48,0.08-0.7c0.04-0.52,0.06-0.98,0.06-1.41
		c0-1.33-0.1-2.62-0.3-3.87c-0.05-0.31-0.1-0.63-0.17-0.93c-0.19-0.93-0.42-1.83-0.72-2.71c-0.2-0.59-0.42-1.17-0.66-1.74
		c-0.08-0.2-0.16-0.38-0.25-0.57c-0.35-0.75-0.73-1.5-1.15-2.22c-0.32-0.54-0.67-1.08-1.03-1.62c-0.02-0.03-0.03-0.05-0.05-0.08
		c-0.16-0.24-0.33-0.48-0.51-0.72c-0.17-0.23-0.35-0.48-0.53-0.71c-0.03-0.03-0.06-0.08-0.1-0.12c-0.01-0.01-0.02-0.02-0.03-0.04
		c-0.24-0.29-0.48-0.59-0.73-0.88c-0.02-0.02-0.03-0.03-0.04-0.05c-0.26-0.29-0.51-0.58-0.78-0.87c-4.24-4.61-10.26-8.7-17.73-12.56
		c0,0-8.2-18.22-20.77-22.95c-0.34-0.13-0.69-0.25-1.03-0.37c-0.2-0.06-0.41-0.14-0.6-0.2c-1.01-0.32-2.02-0.59-3.02-0.79
		c-0.18-0.04-0.37-0.08-0.54-0.1c-0.64-0.12-1.29-0.22-1.93-0.28c-0.17-0.02-0.34-0.03-0.51-0.05c-0.3-0.03-0.61-0.06-0.93-0.07
		c-0.4-0.02-0.81-0.03-1.21-0.03c-0.29,0-0.59,0-0.89,0.02c-0.16,0.01-0.31,0.01-0.48,0.02c-0.26,0.01-0.5,0.03-0.74,0.06
		c-0.07,0-0.13,0.01-0.19,0.02c-0.7,0.06-1.4,0.17-2.09,0.31c-0.43,0.09-0.87,0.19-1.3,0.3c-0.72,0.18-1.44,0.41-2.16,0.67
		c-0.28,0.11-0.57,0.22-0.85,0.34c-0.28,0.12-0.57,0.24-0.85,0.38c-0.57,0.26-1.12,0.54-1.69,0.86c-0.56,0.31-1.11,0.65-1.67,1.02
		c-0.56,0.36-1.1,0.75-1.65,1.17c-0.2,0.16-0.42,0.32-0.63,0.5c-0.1,0.08-0.21,0.17-0.32,0.26c-3.54,2.95-6.92,7.07-10.08,12.54
		c-0.36,0.61-0.71,1.23-1.05,1.85c-0.08,0.14-0.16,0.28-0.24,0.42c-0.34,0.63-0.67,1.25-0.99,1.87c-0.01,0.01-0.02,0.02-0.02,0.03
		c-0.35,0.69-0.71,1.38-1.06,2.06c-0.24,0.47-0.47,0.94-0.7,1.43c-0.19,0.38-0.38,0.77-0.56,1.16c-0.27,0.57-0.54,1.14-0.79,1.72
		c-0.1,0.23-0.21,0.46-0.31,0.7c0.01,0.01,0,0.01,0.01,0.02C254.07,117.89,254.77,119.77,255.41,121.72z"/>
	<path class="st38" d="M55.94,320.02c0.95,0,2.81,1.35,5.56,4.05c1.29,1.24,2.75,1.86,4.38,1.86c1.18,0,2.19-0.45,3.04-1.35
		c0.84-0.9,1.26-2.02,1.26-3.37c0-1.91-0.91-3.63-2.74-5.14c-1.83-1.52-3.92-2.5-6.28-2.95c-0.79-0.17-1.57-0.25-2.36-0.25
		c-0.84,0-1.59,0.09-2.23,0.25c-0.65,0.17-1.11,0.39-1.39,0.67c-1.29,0.45-4.03,2.59-8.22,6.42c-4.19,3.83-6.7,6.64-7.54,8.44
		c-0.67,0.62-1.38,2.67-2.11,6.16c-0.73,3.49-1.1,6.84-1.1,10.05c0,9.23,1.88,16.43,5.65,21.61c3.37,4.67,7.7,7.01,12.98,7.01
		c3.15,0,6.45-1.05,9.91-3.14c3.46-2.1,5.18-3.91,5.18-5.44c0-0.79-0.17-1.47-0.51-2.04S68.61,362,68,362
		c-1.91,1.26-3.78,2.48-5.61,3.68c-1.83,1.2-3.44,1.8-4.85,1.8c-3.43-0.28-6.25-2.79-8.47-7.52c-2.22-4.73-3.33-10.39-3.33-16.98
		c0-7.15,0.94-12.77,2.82-16.85C50.45,322.06,52.91,320.02,55.94,320.02z"/>
	<path class="st38" d="M101.61,372.87c1.24,0,2.45-0.41,3.64-1.22c1.19-0.81,1.78-1.81,1.78-2.99c0-2.53-1.39-6.1-4.16-10.71
		c-2.15-3.6-4.95-7.53-8.4-11.8v-1.94c2.73-1.52,5.18-3.74,7.36-6.66c2.18-2.92,3.26-5.7,3.26-8.35c0-3.65-1.85-7.36-5.56-11.13
		c-3.71-3.76-7.42-5.65-11.13-5.65c-3.54,0-6.73,1.18-9.57,3.55c-2.84,2.37-4.26,5.35-4.26,8.96v44.72c0,1.01,0.42,1.8,1.26,2.37
		c0.84,0.56,1.83,0.85,2.95,0.85c1.18,0,2.2-0.32,3.08-0.97c0.87-0.65,1.31-1.54,1.31-2.67v-44.06c0-1.52,0.31-2.79,0.93-3.81
		c0.62-1.01,1.43-1.52,2.44-1.52c2.47,0,4.64,1.21,6.49,3.63c1.86,2.42,2.78,4.97,2.78,7.67c0,2.64-2.25,5.96-6.74,9.95
		c-2.02,1.8-3.04,3.68-3.04,5.65c2.14,3.82,3.78,6.83,4.91,9.02c3.44,6.58,5.76,11.58,6.94,15.01c0.68,0.79,1.3,1.33,1.86,1.64
		C100.31,372.72,100.93,372.87,101.61,372.87z"/>
	<path class="st38" d="M144.12,361.96c-0.39-0.59-0.82-0.89-1.26-0.89c-2.08,1.46-4.12,2.88-6.11,4.26c-2,1.38-3.75,2.07-5.27,2.07
		c-2.81,0-5.34-1.97-7.59-5.9c-1.97-3.43-2.95-6.77-2.95-10.03c0-2.36,0.67-3.54,2.02-3.54h16.52c1.12,0,1.97-0.46,2.53-1.39
		c0.56-0.93,0.84-2.04,0.84-3.33c0-1.07-0.17-1.95-0.51-2.65s-0.82-1.05-1.43-1.05h-18.46c-0.45,0-0.82-0.51-1.1-1.52
		c-0.28-1.01-0.42-2.28-0.42-3.79c0-3.54,0.65-6.6,1.94-9.19c1.57-3.2,3.85-4.81,6.83-4.81c1.52,0,3.31,0.93,5.4,2.78
		c2.08,1.85,4.02,2.78,5.82,2.78c0.84,0,1.49-0.67,1.94-2.02c0.28-0.84,0.5-2.11,0.67-3.79c0-1.57-1.13-3.1-3.37-4.59
		c-2.25-1.49-4.38-2.23-6.41-2.23c-4.83,0-9.64,2.73-14.42,8.18c-5.68,6.46-8.51,14.5-8.51,24.11c0,8.82,1.8,15.65,5.39,20.48
		c3.37,4.55,7.95,6.83,13.74,6.83c2.81,0,5.97-1.05,9.48-3.16s5.27-4.01,5.27-5.69C144.71,363.18,144.51,362.55,144.12,361.96z"/>
	<path class="st38" d="M186.03,373.8c1.4,0,2.6-0.59,3.61-1.77c1.01-1.18,1.37-2.42,1.09-3.71l-11.04-46.96
		c-0.67-2.72-1.78-4.74-3.33-6.05c-1.55-1.31-3.3-1.96-5.27-1.96c-1.97,0-3.77,0.55-5.39,1.66c-1.63,1.11-2.76,2.58-3.37,4.41
		l-12.81,37.77c-0.28,0.96-0.42,1.8-0.42,2.53c0,3.26,1.56,6.31,4.68,9.15c3.12,2.84,6.36,4.26,9.74,4.26
		c2.08,0,4.17-0.94,6.28-2.82c2.11-1.88,4.71-5.13,7.8-9.74c0.11-0.45,0.17-0.79,0.17-1.01c0-0.67-0.25-1.35-0.76-2.02
		c-0.51-0.67-1.1-1.07-1.77-1.18c-1.13,1.52-2.05,2.64-2.78,3.37c-2.19,2.25-4.13,3.37-5.82,3.37c-2.19,0-4.22-0.93-6.07-2.78
		c-1.85-1.85-2.78-3.96-2.78-6.32c0-0.67,0.14-1.49,0.42-2.44l9.76-27.99c0.23-0.67,0.74-1.01,1.55-1.01c0.63,0,1.03,0.25,1.2,0.75
		l11.04,45.86c0.39,1.63,0.97,2.81,1.72,3.55C184.23,373.43,185.08,373.8,186.03,373.8z"/>
	<path class="st38" d="M223.02,321.95c0.95,0,1.65-0.39,2.07-1.18c0.42-0.79,0.63-1.74,0.63-2.87c0-1.07-0.2-2.02-0.59-2.87
		c-0.39-0.84-0.9-1.26-1.52-1.26h-26.89c-0.79,0-1.36,0.37-1.73,1.1c-0.37,0.73-0.55,1.66-0.55,2.78c0,1.07,0.2,1.98,0.59,2.74
		c0.39,0.76,0.95,1.14,1.69,1.14h7.25c0.62,0,1.07,0.17,1.35,0.5c0.17,0.23,0.25,0.51,0.25,0.84c0,0.17,0,0.45,0,0.84v44.76
		c0,1.29,0.43,2.32,1.31,3.08c0.87,0.76,1.84,1.14,2.91,1.14c1.07,0,1.98-0.38,2.74-1.14c0.76-0.76,1.14-1.84,1.14-3.25v-44
		c0.28-0.56,0.51-1.01,0.67-1.35c0.39-0.68,0.7-1.01,0.93-1.01H223.02z"/>
	<path class="st38" d="M235.58,324.23c1.07-1.91,1.6-5.03,1.6-9.36c0-1.86-0.32-3.33-0.97-4.43c-0.65-1.1-1.59-1.64-2.82-1.64
		c-1.12,0-2.14,0.56-3.03,1.69c-0.9,1.12-1.35,2.28-1.35,3.46c0,2.19,0.62,3.63,1.85,4.3c1.24,0.67,1.86,1.66,1.86,2.95
		c0,0.17-0.22,1.07-0.67,2.7c-0.17,0.62-0.25,1.18-0.25,1.69c0,0.73,0.42,1.01,1.26,0.84C234.07,326.2,234.91,325.47,235.58,324.23z
		"/>
	<path class="st38" d="M270.02,369.54c3.51-2.11,5.27-4.01,5.27-5.69c0-0.67-0.2-1.31-0.59-1.9c-0.39-0.59-0.82-0.89-1.26-0.89
		c-2.08,1.46-4.12,2.88-6.11,4.26c-2,1.38-3.75,2.07-5.27,2.07c-2.81,0-5.34-1.97-7.59-5.9c-1.97-3.43-2.95-6.77-2.95-10.03
		c0-2.36,0.67-3.54,2.02-3.54h16.52c1.12,0,1.97-0.46,2.53-1.39c0.56-0.93,0.84-2.04,0.84-3.33c0-1.07-0.17-1.95-0.51-2.65
		s-0.82-1.05-1.43-1.05h-18.46c-0.45,0-0.82-0.51-1.1-1.52c-0.28-1.01-0.42-2.28-0.42-3.79c0-3.54,0.65-6.6,1.94-9.19
		c1.57-3.2,3.85-4.81,6.83-4.81c1.52,0,3.31,0.93,5.4,2.78c2.08,1.85,4.02,2.78,5.82,2.78c0.84,0,1.49-0.67,1.94-2.02
		c0.28-0.84,0.5-2.11,0.67-3.79c0-1.57-1.13-3.1-3.37-4.59c-2.25-1.49-4.38-2.23-6.41-2.23c-4.83,0-9.64,2.73-14.42,8.18
		c-5.68,6.46-8.51,14.5-8.51,24.11c0,8.82,1.8,15.65,5.39,20.48c3.37,4.55,7.95,6.83,13.74,6.83
		C263.35,372.7,266.51,371.65,270.02,369.54z"/>
	<path class="st38" d="M312.59,315.17c-2.5-2.28-5.69-3.42-9.57-3.42c-2.59,0-5.28,1.74-8.09,5.23c-2.47,3.03-3.66,5.23-3.54,6.58
		c0,0.73,0.17,1.53,0.5,2.4c0.34,0.87,0.79,1.31,1.35,1.31c0.95,0,2.05-0.88,3.29-2.65c1.24-1.77,2.61-2.66,4.13-2.66
		c2.58,0,4.69,0.9,6.32,2.7c1.63,1.8,2.44,4.13,2.44,7c0,3.93-1.2,10.16-3.58,18.67c-2.39,8.51-4.26,12.77-5.61,12.77
		c-2.08,0-4.71-5.53-7.88-16.61c-3.18-11.07-4.76-20.68-4.76-28.83c-0.45-2.59-1.71-3.88-3.79-3.88c-1.24,0-2.29,0.44-3.16,1.31
		c-0.87,0.87-1.31,1.95-1.31,3.25c0,2.14,0.7,7.16,2.11,15.09c1.86,10.4,4.05,18.97,6.58,25.71c3.43,9.05,7.17,13.57,11.21,13.57
		c3.15,0,6.16-3.31,9.02-9.95c2.41-5.56,4.41-12.42,5.99-20.57c1.4-7.25,2.11-13.12,2.11-17.62
		C316.34,320.58,315.09,317.44,312.59,315.17z"/>
	<path class="st38" d="M354.28,363.85c0-0.67-0.2-1.31-0.59-1.9c-0.39-0.59-0.82-0.89-1.26-0.89c-2.08,1.46-4.12,2.88-6.11,4.26
		c-2,1.38-3.75,2.07-5.27,2.07c-2.81,0-5.34-1.97-7.59-5.9c-1.97-3.43-2.95-6.77-2.95-10.03c0-2.36,0.67-3.54,2.02-3.54h16.52
		c1.12,0,1.97-0.46,2.53-1.39c0.56-0.93,0.84-2.04,0.84-3.33c0-1.07-0.17-1.95-0.51-2.65c-0.34-0.7-0.82-1.05-1.43-1.05h-18.46
		c-0.45,0-0.82-0.51-1.1-1.52c-0.28-1.01-0.42-2.28-0.42-3.79c0-3.54,0.65-6.6,1.94-9.19c1.57-3.2,3.85-4.81,6.83-4.81
		c1.52,0,3.31,0.93,5.4,2.78c2.08,1.85,4.02,2.78,5.82,2.78c0.84,0,1.49-0.67,1.94-2.02c0.28-0.84,0.5-2.11,0.67-3.79
		c0-1.57-1.13-3.1-3.37-4.59c-2.25-1.49-4.38-2.23-6.41-2.23c-4.83,0-9.64,2.73-14.42,8.18c-5.68,6.46-8.51,14.5-8.51,24.11
		c0,8.82,1.8,15.65,5.39,20.48c3.37,4.55,7.95,6.83,13.74,6.83c2.81,0,5.97-1.05,9.48-3.16S354.28,365.54,354.28,363.85z"/>
	<path class="st38" d="M393.48,315.04c0-1.57-0.65-2.36-1.94-2.36c-1.12,0-2.23,0.49-3.33,1.48c-1.1,0.98-1.64,2.12-1.64,3.41v13.32
		l-0.84,0.42c-3.09-3.43-5.7-6.18-7.84-8.26c-2.92-2.87-5.65-5.14-8.18-6.83c-2.87-1.91-5.31-2.87-7.34-2.87
		c-1.01,0-1.88,0.5-2.61,1.52c-0.73,1.01-1.1,2.16-1.1,3.46v51.17c0,1.01,0.31,1.77,0.93,2.28c0.62,0.5,1.41,0.76,2.36,0.76
		c0.95,0,1.8-0.25,2.53-0.76c0.73-0.51,1.1-1.18,1.1-2.02v-39.54c0-1.29,0.62-1.99,1.85-2.11c0.51-0.05,2.22,1.12,5.14,3.54
		c3.32,2.75,6.13,5.59,8.43,8.51c2.92,3.71,4.38,7.03,4.38,9.95v18.21c0,1.57,0.39,2.77,1.18,3.58c0.79,0.81,1.71,1.22,2.78,1.22
		c1.12,0,2.09-0.41,2.91-1.22c0.82-0.81,1.22-1.9,1.22-3.24V315.04z"/>
	<path class="st38" d="M428.59,320.77c0.42-0.79,0.63-1.74,0.63-2.87c0-1.07-0.2-2.02-0.59-2.87c-0.39-0.84-0.9-1.26-1.52-1.26
		h-26.89c-0.79,0-1.36,0.37-1.73,1.1c-0.37,0.73-0.55,1.66-0.55,2.78c0,1.07,0.2,1.98,0.59,2.74c0.39,0.76,0.95,1.14,1.69,1.14h7.25
		c0.62,0,1.07,0.17,1.35,0.5c0.17,0.23,0.25,0.51,0.25,0.84c0,0.17,0,0.45,0,0.84v44.76c0,1.29,0.43,2.32,1.31,3.08
		c0.87,0.76,1.84,1.14,2.91,1.14s1.98-0.38,2.74-1.14c0.76-0.76,1.14-1.84,1.14-3.25v-44c0.28-0.56,0.51-1.01,0.67-1.35
		c0.39-0.68,0.7-1.01,0.93-1.01h7.76C427.48,321.95,428.17,321.56,428.59,320.77z"/>
	<path class="st38" d="M450.97,335.11c-3.03-2.81-4.67-4.22-4.89-4.22c-0.56-1.29-0.84-2.5-0.84-3.63c0-1.8,0.49-3.33,1.47-4.59
		c0.98-1.26,2.21-1.9,3.67-1.9c0.9,0,2.63,1.11,5.18,3.33c2.56,2.22,4.31,3.33,5.27,3.33c1.69,0,2.89-0.53,3.63-1.6
		c0.5-0.73,0.76-1.66,0.76-2.78c0-3.48-1.94-6.04-5.82-7.67c-1.29-0.5-3.23-0.98-5.82-1.43c-3.49,0-7.25,1.72-11.3,5.14
		c-4.05,3.43-6.07,6.8-6.07,10.12c0,3.48,1.69,7.05,5.06,10.71c3.09,3.09,6.21,6.15,9.36,9.19c3.31,3.71,4.97,7.45,4.97,11.21
		c0,2.08-0.48,3.57-1.43,4.47c-0.96,0.9-2.16,1.35-3.63,1.35c-1.74,0-4.33-1.63-7.76-4.89c-3.43-3.26-5.68-4.89-6.74-4.89
		c-0.9,0-1.72,0.45-2.44,1.35c-0.96,1.24-1.43,2.42-1.43,3.54c0.22,2.42,1.66,4.86,4.3,7.33c2.92,2.75,6.1,4.13,9.53,4.13
		c3.48,0,7.25-1.15,11.3-3.46c5.28-3.04,7.93-7.03,7.93-11.97c0-3.48-1.66-7.5-4.97-12.06C457.94,342.07,454.85,338.7,450.97,335.11
		z"/>
	<path class="st38" d="M45.74,398.51c1.8,0,3.03,0.49,3.82,0.94l0.57-1.33c-0.63-0.44-2.25-1-4.23-1c-4.82,0-8.31,3.48-8.31,8.61
		c0,4.84,3.1,8.22,7.74,8.22c2.33,0,4.02-0.7,4.71-1.05l-0.44-1.26c-0.86,0.39-2.11,0.93-4.03,0.93c-3.71,0-6.37-2.75-6.37-6.97
		C39.21,401.82,41.42,398.51,45.74,398.51z"/>
	<path class="st38" d="M59.88,397.12c-4,0-7.62,3.04-7.62,8.55c0,5.06,3.21,8.3,7.38,8.3c3.59,0,7.71-2.56,7.71-8.57
		C67.36,400.46,64.33,397.12,59.88,397.12z M59.76,412.65c-3.31,0-5.88-3.02-5.88-7.05c0-3.47,1.86-7.15,5.97-7.15
		c4.25,0,5.91,4.08,5.91,7.02C65.75,409.6,63.1,412.65,59.76,412.65z"/>
	<path class="st38" d="M88.4,397.12c-1.72,0-2.81,0.48-3.85,1.34c-0.59,0.5-1.18,1.22-1.64,2.18h-0.07
		c-0.69-2.03-2.38-3.52-4.62-3.52c-2.65,0-4.2,1.37-5.23,3.22h-0.07l-0.12-2.85h-1.49c0.08,1.27,0.14,2.37,0.14,3.85v12.26h1.59
		v-9.93c0-0.55,0.1-1.1,0.24-1.55c0.6-1.88,2.31-3.63,4.47-3.63c2.6,0,3.99,2.14,3.99,5.04v10.07h1.6v-10.32
		c0-0.6,0.13-1.13,0.28-1.6c0.63-1.7,2.22-3.2,4.23-3.2c2.8,0,4.2,2.16,4.2,5.77v9.34h1.59v-9.49
		C93.65,398.01,89.97,397.12,88.4,397.12z"/>
	<path class="st38" d="M115.89,397.12c-1.72,0-2.81,0.48-3.85,1.34c-0.59,0.5-1.18,1.22-1.64,2.18h-0.07
		c-0.69-2.03-2.38-3.52-4.62-3.52c-2.65,0-4.2,1.37-5.23,3.22h-0.07l-0.12-2.85H98.8c0.08,1.27,0.14,2.37,0.14,3.85v12.26h1.59
		v-9.93c0-0.55,0.1-1.1,0.24-1.55c0.6-1.88,2.31-3.63,4.47-3.63c2.6,0,3.99,2.14,3.99,5.04v10.07h1.6v-10.32
		c0-0.6,0.13-1.13,0.28-1.6c0.63-1.7,2.22-3.2,4.23-3.2c2.8,0,4.2,2.16,4.2,5.77v9.34h1.59v-9.49
		C121.14,398.01,117.46,397.12,115.89,397.12z"/>
	<path class="st38" d="M138.83,397.5h-1.59v10.03c0,0.65-0.15,1.28-0.32,1.78c-0.68,1.63-2.41,3.27-4.75,3.27
		c-3.2,0-4.28-2.52-4.28-6.03v-9.05h-1.6v9.38c0,6.08,3.43,7.1,5.48,7.1c2.89,0,4.71-1.75,5.53-3.23h0.07l0.11,2.86h1.49
		c-0.08-1.23-0.13-2.5-0.13-3.94V397.5z"/>
	<path class="st38" d="M151.33,397.12c-2.64,0-4.67,1.47-5.55,3.28h-0.07l-0.12-2.91h-1.49c0.08,1.27,0.14,2.37,0.14,3.85v12.26
		h1.59v-9.97c0-0.5,0.1-1.05,0.22-1.44c0.64-2.09,2.57-3.71,4.83-3.71c3.33,0,4.46,2.66,4.46,5.6v9.52h1.59v-9.66
		C156.95,397.91,152.86,397.12,151.33,397.12z"/>
	<rect x="162.24" y="397.5" class="st38" width="1.59" height="16.11"/>
	<path class="st38" d="M163.04,391.49c-0.74,0-1.3,0.65-1.3,1.39c0,0.75,0.51,1.39,1.24,1.39c0.85,0,1.34-0.65,1.34-1.39
		C164.33,392.12,163.81,391.49,163.04,391.49z"/>
	<path class="st38" d="M176.07,398.51c1.8,0,3.03,0.49,3.82,0.94l0.57-1.33c-0.63-0.44-2.25-1-4.23-1c-4.82,0-8.31,3.48-8.31,8.61
		c0,4.84,3.1,8.22,7.74,8.22c2.33,0,4.02-0.7,4.71-1.05l-0.44-1.26c-0.86,0.39-2.11,0.93-4.03,0.93c-3.71,0-6.37-2.75-6.37-6.97
		C169.53,401.82,171.74,398.51,176.07,398.51z"/>
	<path class="st38" d="M194.07,403.49c0-2.88-0.89-6.37-5.54-6.37c-1.46,0-3.25,0.4-4.72,1.39l0.5,1.16c1.17-0.82,2.64-1.2,4.04-1.2
		c3.81-0.03,4.12,3.15,4.12,4.75v0.43c-6.55-0.07-9.82,2.17-9.82,5.89c0,2.15,1.5,4.43,4.74,4.43c2.56,0,4.35-1.44,5.13-2.68h0.08
		l0.23,2.31h1.47c-0.19-1.23-0.23-2.55-0.23-3.83V403.49z M192.48,408.45c0,0.28-0.05,0.62-0.17,0.97
		c-0.55,1.57-2.08,3.23-4.77,3.23c-1.68,0-3.21-1.04-3.21-3.36c0-3.87,4.63-4.4,8.14-4.3V408.45z"/>
	<path class="st38" d="M201.2,392.83l-1.6,0.52v4.15h-2.72v1.29h2.72v10.19c0,1.65,0.25,3,0.98,3.84c0.63,0.77,1.6,1.14,2.78,1.14
		c0.97,0,1.7-0.17,2.22-0.39l-0.19-1.23c-0.41,0.14-1,0.25-1.83,0.25c-1.73,0-2.37-1.29-2.37-3.33v-10.47h4.59v-1.29h-4.59V392.83z"
		/>
	<rect x="209.36" y="397.5" class="st38" width="1.59" height="16.11"/>
	<path class="st38" d="M210.16,391.49c-0.74,0-1.3,0.65-1.3,1.39c0,0.75,0.51,1.39,1.24,1.39c0.85,0,1.34-0.65,1.34-1.39
		C211.45,392.12,210.93,391.49,210.16,391.49z"/>
	<path class="st38" d="M222.66,397.12c-4,0-7.62,3.04-7.62,8.55c0,5.06,3.21,8.3,7.38,8.3c3.59,0,7.71-2.56,7.71-8.57
		C230.13,400.46,227.11,397.12,222.66,397.12z M222.53,412.65c-3.31,0-5.88-3.02-5.88-7.05c0-3.47,1.86-7.15,5.97-7.15
		c4.25,0,5.91,4.08,5.91,7.02C228.52,409.6,225.88,412.65,222.53,412.65z"/>
	<path class="st38" d="M241.31,397.12c-2.64,0-4.67,1.47-5.55,3.28h-0.07l-0.12-2.91h-1.49c0.08,1.27,0.14,2.37,0.14,3.85v12.26
		h1.59v-9.97c0-0.5,0.1-1.05,0.22-1.44c0.64-2.09,2.57-3.71,4.83-3.71c3.33,0,4.46,2.66,4.46,5.6v9.52h1.59v-9.66
		C246.93,397.91,242.85,397.12,241.31,397.12z"/>
	<path class="st38" d="M275,401.67h-1.52c-0.52,3.35-1.22,5.6-2.33,7.28c-1.68-1.92-4.28-4.87-6.59-7.57v-0.1
		c3.85-1.91,5.27-3.74,5.27-6.17c0-2.75-1.91-4.5-4.31-4.5c-3.26,0-5.1,2.64-5.1,5.34c0,1.59,0.7,3.24,1.97,4.94l-0.01,0.1
		c-2.53,1.46-4.47,3.53-4.47,6.67c0,3.52,2.66,6.31,6.38,6.31c2.38,0,4.58-0.75,6.86-2.94c1.09,1.1,1.75,1.82,2.49,2.57h2.01
		c-1.35-1.42-2.43-2.54-3.6-3.73C273.53,408.04,274.39,405.3,275,401.67z M261.93,395.79c0-2.06,1.15-3.89,3.34-3.89
		c2.17,0,3.05,1.75,3.05,3.36c0,2.29-1.85,3.68-4.56,5.11C262.85,399.1,261.93,397.7,261.93,395.79z M264.63,412.67
		c-2.95,0-5.13-2.18-5.13-5.2c0-2.94,2.2-4.64,3.62-5.49c2.89,3.38,5.82,6.58,7.13,8.1C268.92,411.58,266.98,412.67,264.63,412.67z"
		/>
	<path class="st38" d="M291.62,397.12c-4.16,0-7.24,3.37-7.24,8.74c0,4.72,2.88,8.09,7.51,8.09c2.81,0,4.46-0.7,5.09-1.03
		l-0.41-1.26c-0.91,0.44-2.13,0.91-4.48,0.91c-3.32,0-6.13-2.04-6.13-7.18h11.89c0.05-0.29,0.05-0.54,0.05-0.99
		C297.9,402.08,296.9,397.12,291.62,397.12z M286.04,404.12c0.29-2.48,1.83-5.67,5.37-5.67c3.92,0,4.86,3.42,4.82,5.67H286.04z"/>
	<polygon class="st38" points="293.27,390.51 290.29,395.14 291.51,395.14 295.61,390.51 	"/>
	<path class="st38" d="M308.54,407.5c-0.61,1.54-1.19,2.97-1.64,4.31h-0.07c-0.43-1.37-0.93-2.74-1.57-4.31l-3.78-10h-1.7
		l6.31,16.11h1.41l6.55-16.11h-1.68L308.54,407.5z"/>
	<path class="st38" d="M322.66,397.12c-4.16,0-7.24,3.37-7.24,8.74c0,4.72,2.88,8.09,7.51,8.09c2.81,0,4.46-0.7,5.09-1.03
		l-0.41-1.26c-0.91,0.44-2.13,0.91-4.48,0.91c-3.32,0-6.13-2.04-6.13-7.18h11.89c0.05-0.29,0.05-0.54,0.05-0.99
		C328.94,402.08,327.94,397.12,322.66,397.12z M317.09,404.12c0.29-2.48,1.83-5.67,5.37-5.67c3.92,0,4.86,3.42,4.82,5.67H317.09z"/>
	<path class="st38" d="M340.12,397.12c-2.64,0-4.67,1.47-5.55,3.28h-0.07l-0.12-2.91h-1.49c0.08,1.27,0.14,2.37,0.14,3.85v12.26
		h1.59v-9.97c0-0.5,0.1-1.05,0.22-1.44c0.64-2.09,2.57-3.71,4.83-3.71c3.33,0,4.46,2.66,4.46,5.6v9.52h1.59v-9.66
		C345.74,397.91,341.65,397.12,340.12,397.12z"/>
	<path class="st38" d="M356.93,397.12c-4.16,0-7.24,3.37-7.24,8.74c0,4.72,2.88,8.09,7.51,8.09c2.81,0,4.46-0.7,5.09-1.03
		l-0.41-1.26c-0.91,0.44-2.13,0.91-4.48,0.91c-3.32,0-6.13-2.04-6.13-7.18h11.89c0.05-0.29,0.05-0.54,0.05-0.99
		C363.21,402.08,362.21,397.12,356.93,397.12z M351.35,404.12c0.29-2.48,1.83-5.67,5.37-5.67c3.92,0,4.86,3.42,4.82,5.67H351.35z"/>
	<path class="st38" d="M384.25,397.12c-1.72,0-2.81,0.48-3.85,1.34c-0.59,0.5-1.18,1.22-1.64,2.18h-0.07
		c-0.69-2.03-2.38-3.52-4.62-3.52c-2.65,0-4.2,1.37-5.23,3.22h-0.07l-0.12-2.85h-1.49c0.08,1.27,0.14,2.37,0.14,3.85v12.26h1.59
		v-9.93c0-0.55,0.1-1.1,0.24-1.55c0.6-1.88,2.31-3.63,4.47-3.63c2.6,0,3.99,2.14,3.99,5.04v10.07h1.6v-10.32
		c0-0.6,0.13-1.13,0.28-1.6c0.63-1.7,2.22-3.2,4.23-3.2c2.8,0,4.2,2.16,4.2,5.77v9.34h1.59v-9.49
		C389.5,398.01,385.82,397.12,384.25,397.12z"/>
	<path class="st38" d="M400.7,397.12c-4.16,0-7.24,3.37-7.24,8.74c0,4.72,2.88,8.09,7.51,8.09c2.81,0,4.46-0.7,5.09-1.03l-0.41-1.26
		c-0.91,0.44-2.13,0.91-4.48,0.91c-3.32,0-6.13-2.04-6.13-7.18h11.89c0.05-0.29,0.05-0.54,0.05-0.99
		C406.97,402.08,405.97,397.12,400.7,397.12z M395.12,404.12c0.29-2.48,1.83-5.67,5.37-5.67c3.92,0,4.86,3.42,4.82,5.67H395.12z"/>
	<path class="st38" d="M418.15,397.12c-2.64,0-4.67,1.47-5.55,3.28h-0.07l-0.12-2.91h-1.49c0.08,1.27,0.14,2.37,0.14,3.85v12.26
		h1.59v-9.97c0-0.5,0.1-1.05,0.22-1.44c0.64-2.09,2.57-3.71,4.83-3.71c3.33,0,4.46,2.66,4.46,5.6v9.52h1.59v-9.66
		C423.77,397.91,419.68,397.12,418.15,397.12z"/>
	<path class="st38" d="M430.97,392.83l-1.6,0.52v4.15h-2.72v1.29h2.72v10.19c0,1.65,0.25,3,0.98,3.84c0.63,0.77,1.6,1.14,2.78,1.14
		c0.97,0,1.7-0.17,2.22-0.39l-0.19-1.23c-0.41,0.14-1,0.25-1.83,0.25c-1.73,0-2.37-1.29-2.37-3.33v-10.47h4.59v-1.29h-4.59V392.83z"
		/>
	<path class="st38" d="M439.93,391.49c-0.74,0-1.3,0.65-1.3,1.39c0,0.75,0.51,1.39,1.24,1.39c0.85,0,1.34-0.65,1.34-1.39
		C441.21,392.12,440.69,391.49,439.93,391.49z"/>
	<rect x="439.12" y="397.5" class="st38" width="1.59" height="16.11"/>
	<path class="st38" d="M452.05,397.12c-4.16,0-7.24,3.37-7.24,8.74c0,4.72,2.88,8.09,7.51,8.09c2.81,0,4.46-0.7,5.09-1.03
		l-0.41-1.26c-0.91,0.44-2.13,0.91-4.48,0.91c-3.32,0-6.13-2.04-6.13-7.18h11.89c0.05-0.29,0.05-0.54,0.05-0.99
		C458.32,402.08,457.32,397.12,452.05,397.12z M446.47,404.12c0.29-2.48,1.83-5.67,5.37-5.67c3.92,0,4.86,3.42,4.82,5.67H446.47z"/>
	<rect x="462.42" y="389.77" class="st38" width="1.59" height="23.83"/>
</g>
</svg>
